<?xml version="1.0" standalone="no"?><!DOCTYPE svg PUBLIC "-//W3C//DTD SVG 1.1//EN" "http://www.w3.org/Graphics/SVG/1.1/DTD/svg11.dtd"><svg t="1676731376381" class="icon" viewBox="0 0 1024 1024" version="1.1" xmlns="http://www.w3.org/2000/svg" p-id="2922" xmlns:xlink="http://www.w3.org/1999/xlink" width="200" height="200"><path d="M519 829.1H263.6c-35.2 0-64-28.8-64-64V435c0-35.2 28.8-64 64-64H519c35.2 0 64 28.8 64 64v330.1c0 35.2-28.8 64-64 64z" fill="#76FF9D" p-id="2923"></path><path d="M512.1 324.8c-6.6 0-12-5.4-12-12v-173c0-6.6 5.4-12 12-12s12 5.4 12 12v173c0 6.6-5.4 12-12 12zM320 324.8c-6.6 0-12-5.4-12-12v-173c0-6.6 5.4-12 12-12s12 5.4 12 12v173c0 6.6-5.4 12-12 12zM639.1 520c-6.6 0-12-5.4-12-12v-48c0-6.6 5.4-12 12-12s12 5.4 12 12v48c0 6.6-5.4 12-12 12z" fill="#333333" p-id="2924"></path><path d="M575.1 843.7h-318c-41.9 0-76-34.1-76-76v-384c0-41.9 34.1-76 76-76h318c41.9 0 76 34.1 76 76V409c0 6.6-5.4 12-12 12s-12-5.4-12-12v-25.3c0-28.7-23.3-52-52-52h-318c-28.7 0-52 23.3-52 52v384c0 28.7 23.3 52 52 52h318c28.7 0 52-23.3 52-52V571c0-6.6 5.4-12 12-12s12 5.4 12 12v196.7c0 41.9-34.1 76-76 76z" fill="#333333" p-id="2925"></path><path d="M576.1 940.2c-49 0-87.1-16.2-110.4-29.9-30.6-17.9-54.5-42.5-65.6-67.5-2.7-6.1 0-13.1 6.1-15.8 6.1-2.7 13.1 0 15.8 6.1 18.2 40.8 80.8 83.1 154.1 83.1 38.4 0 89.3-10.5 129.7-26.6 43.2-17.3 70-39.3 71.9-59 1.5-16.1-9.6-28.3-27.9-46.9-19.8-20.1-42.2-42.8-44.1-79.2-2.3-41.9 24-84.6 78.1-126.9 5.2-4.1 12.8-3.2 16.8 2.1 4.1 5.2 3.2 12.8-2.1 16.8-47.6 37.2-70.7 73.1-68.9 106.7 1.5 27.3 19.7 45.8 37.3 63.7 18.3 18.6 37.3 37.9 34.7 65.9-3.6 38-49.2 63.9-86.8 79-43.8 17.6-96.9 28.4-138.7 28.4z" fill="#333333" p-id="2926"></path></svg>